<?xml version="1.0" standalone="no"?>
<!DOCTYPE svg PUBLIC "-//W3C//DTD SVG 20010904//EN"
 "http://www.w3.org/TR/2001/REC-SVG-20010904/DTD/svg10.dtd">
<svg version="1.0" xmlns="http://www.w3.org/2000/svg"
 width="700.000000pt" height="700.000000pt" viewBox="0 0 700.000000 700.000000"
 preserveAspectRatio="xMidYMid meet">
<metadata>
Created by potrace 1.14, written by Peter Selinger 2001-2017
</metadata>
<g transform="translate(0.000000,700.000000) scale(0.100000,-0.100000)"
fill="#000000" stroke="none">
<path d="M6455 6990 c-22 -5 -78 -20 -125 -33 -191 -56 -1084 -321 -1207 -358
-73 -22 -141 -42 -150 -44 -16 -4 -78 -22 -388 -116 -55 -17 -107 -32 -115
-34 -8 -2 -139 -40 -290 -85 -151 -45 -435 -129 -630 -186 -195 -58 -398 -118
-450 -134 -52 -16 -189 -56 -305 -90 -115 -34 -237 -70 -270 -80 -33 -10 -91
-28 -130 -39 -229 -66 -384 -115 -414 -129 -49 -25 -155 -129 -185 -184 -63
-116 -59 -3 -59 -1766 l0 -1604 -21 7 c-215 64 -496 76 -723 30 -514 -105
-900 -458 -978 -895 -16 -86 -13 -267 5 -350 89 -414 436 -739 913 -855 138
-34 203 -40 397 -39 129 1 189 6 274 24 551 113 937 476 1012 950 4 25 8 698
8 1497 1 798 4 1454 8 1458 4 4 44 18 90 31 301 89 1056 312 1143 339 122 37
187 56 220 65 17 4 136 40 265 78 129 39 334 100 455 135 121 36 464 138 762
226 298 89 546 161 550 161 5 0 8 -446 8 -991 l0 -991 -25 5 c-14 2 -58 12
-98 21 -41 9 -97 19 -125 23 -67 10 -327 10 -394 0 -316 -45 -589 -175 -792
-377 -94 -94 -113 -118 -193 -250 -29 -49 -77 -186 -93 -270 -15 -82 -21 -234
-10 -295 62 -348 283 -629 632 -804 133 -66 297 -118 443 -138 108 -15 469 -7
499 11 3 2 26 7 49 11 108 16 342 112 452 185 25 16 54 36 64 42 75 49 218
195 278 285 86 128 132 238 163 388 12 59 14 307 19 2528 4 1610 2 2263 -6
2300 -12 57 -48 135 -85 184 -38 50 -125 112 -189 135 -64 23 -190 31 -259 18z"/>
</g>
</svg>
